<!--?xml version="1.0" standalone="no"?-->
              <svg id="sw-js-blob-svg" viewBox="0 0 100 100" xmlns="http://www.w3.org/2000/svg" version="1.1">
                    <defs> 
                        <linearGradient id="sw-gradient" x1="0" x2="1" y1="1" y2="0">
                            <stop id="stop1" stop-color="rgba(248, 117, 55, 1)" offset="0%"></stop>
                            <stop id="stop2" stop-color="rgba(251, 168, 31, 1)" offset="100%"></stop>
                        </linearGradient>
                    </defs>
                <path fill="url(#sw-gradient)" d="M24,-30C27.6,-25.5,24.8,-14.7,24.1,-6.1C23.5,2.5,24.9,8.8,23.8,16.5C22.7,24.2,19,33.2,12.8,35.8C6.5,38.4,-2.3,34.6,-8,29.3C-13.7,24.1,-16.3,17.5,-21.5,11.1C-26.7,4.7,-34.6,-1.4,-33.7,-5.8C-32.8,-10.3,-23.1,-13.1,-16,-17.1C-8.9,-21,-4.5,-26,2.8,-29.4C10.2,-32.8,20.3,-34.5,24,-30Z" width="100%" height="100%" transform="translate(50 50)" stroke-width="0" style="transition: all 0.3s ease 0s;"></path>
              </svg>