<!--?xml version="1.0" standalone="no"?-->
              <svg id="sw-js-blob-svg" viewBox="0 0 100 100" xmlns="http://www.w3.org/2000/svg" version="1.1">
                    <defs> 
                        <linearGradient id="sw-gradient" x1="0" x2="1" y1="1" y2="0">
                            <stop id="stop1" stop-color="rgba(248, 117, 55, 1)" offset="0%"></stop>
                            <stop id="stop2" stop-color="rgba(251, 168, 31, 1)" offset="100%"></stop>
                        </linearGradient>
                    </defs>
                <path fill="url(#sw-gradient)" d="M20.5,-28.2C28.3,-22.5,37.6,-18.9,40.9,-12.4C44.1,-6,41.4,3.3,37.4,11.2C33.5,19.1,28.4,25.6,22,30.8C15.6,35.9,7.8,39.7,-0.5,40.3C-8.7,41,-17.4,38.4,-24,33.3C-30.6,28.2,-35.1,20.6,-38,12.2C-40.9,3.9,-42.1,-5.1,-39.3,-12.4C-36.4,-19.7,-29.4,-25.2,-22.2,-31.2C-14.9,-37.1,-7.5,-43.3,-0.6,-42.5C6.3,-41.7,12.6,-33.9,20.5,-28.2Z" width="100%" height="100%" transform="translate(50 50)" stroke-width="0" style="transition: all 0.3s ease 0s;"></path>
              </svg>