<!--?xml version="1.0" standalone="no"?-->
              <svg id="sw-js-blob-svg" viewBox="0 0 100 100" xmlns="http://www.w3.org/2000/svg" version="1.1">
                    <defs> 
                        <linearGradient id="sw-gradient" x1="0" x2="1" y1="1" y2="0">
                            <stop id="stop1" stop-color="rgba(248, 117, 55, 1)" offset="0%"></stop>
                            <stop id="stop2" stop-color="rgba(251, 168, 31, 1)" offset="100%"></stop>
                        </linearGradient>
                    </defs>
                <path fill="url(#sw-gradient)" d="M15.9,-21.5C19.9,-15.6,21.9,-9.9,23.8,-3.5C25.8,2.9,27.9,10.1,25.6,15.4C23.3,20.8,16.7,24.3,9.4,27.9C2.1,31.4,-6,35,-12.9,33.4C-19.9,31.8,-25.8,25,-26.4,18.1C-27,11.1,-22.3,4,-22.1,-5.1C-21.9,-14.2,-26.3,-25.3,-23.3,-31.4C-20.4,-37.5,-10.2,-38.5,-2.1,-36C6,-33.5,11.9,-27.4,15.9,-21.5Z" width="100%" height="100%" transform="translate(50 50)" stroke-width="0" style="transition: all 0.3s ease 0s;"></path>
              </svg>