<!--?xml version="1.0" standalone="no"?-->
              <svg id="sw-js-blob-svg" viewBox="0 0 100 100" xmlns="http://www.w3.org/2000/svg" version="1.1">
                    <defs> 
                        <linearGradient id="sw-gradient" x1="0" x2="1" y1="1" y2="0">
                            <stop id="stop1" stop-color="rgba(248, 117, 55, 1)" offset="0%"></stop>
                            <stop id="stop2" stop-color="rgba(251, 168, 31, 1)" offset="100%"></stop>
                        </linearGradient>
                    </defs>
                <path fill="url(#sw-gradient)" d="M18.9,-34.9C23.9,-29.9,26.8,-23.5,31.4,-17.5C35.9,-11.5,42,-5.7,42.9,0.5C43.8,6.8,39.5,13.5,34.9,19.4C30.2,25.3,25.3,30.3,19.4,34.3C13.6,38.4,6.8,41.4,0.4,40.7C-6,40,-11.9,35.4,-18.9,32.1C-25.9,28.7,-33.9,26.5,-36.5,21.3C-39.1,16.2,-36.2,8.1,-34.8,0.8C-33.4,-6.4,-33.4,-12.9,-30.9,-18.1C-28.3,-23.3,-23.2,-27.4,-17.7,-32.1C-12.1,-36.7,-6,-42.1,0.5,-42.9C7,-43.7,13.9,-39.9,18.9,-34.9Z" width="100%" height="100%" transform="translate(50 50)" stroke-width="0" style="transition: all 0.3s ease 0s;"></path>
              </svg>