<!--?xml version="1.0" standalone="no"?-->
              <svg id="sw-js-blob-svg" viewBox="0 0 100 100" xmlns="http://www.w3.org/2000/svg" version="1.1">
                    <defs> 
                        <linearGradient id="sw-gradient" x1="0" x2="1" y1="1" y2="0">
                            <stop id="stop1" stop-color="rgba(248, 117, 55, 1)" offset="0%"></stop>
                            <stop id="stop2" stop-color="rgba(251, 168, 31, 1)" offset="100%"></stop>
                        </linearGradient>
                    </defs>
                <path fill="url(#sw-gradient)" d="M26.4,-30.1C34.6,-24.7,41.8,-16.7,42.9,-7.9C44,0.8,39.1,10.3,33.3,18.3C27.6,26.3,21,33,13.3,35.3C5.5,37.6,-3.3,35.6,-12,32.6C-20.7,29.6,-29.2,25.7,-33,19.1C-36.8,12.5,-35.9,3.1,-33.4,-5C-30.8,-13.1,-26.7,-19.9,-20.8,-25.8C-15,-31.7,-7.5,-36.6,0.8,-37.6C9.1,-38.6,18.3,-35.6,26.4,-30.1Z" width="100%" height="100%" transform="translate(50 50)" stroke-width="0" style="transition: all 0.3s ease 0s;"></path>
              </svg>