<!--?xml version="1.0" standalone="no"?-->
              <svg id="sw-js-blob-svg" viewBox="0 0 100 100" xmlns="http://www.w3.org/2000/svg" version="1.1">
                    <defs> 
                        <linearGradient id="sw-gradient" x1="0" x2="1" y1="1" y2="0">
                            <stop id="stop1" stop-color="rgba(248, 117, 55, 1)" offset="0%"></stop>
                            <stop id="stop2" stop-color="rgba(251, 31, 31, 1)" offset="100%"></stop>
                        </linearGradient>
                    </defs>
                <path fill="url(#sw-gradient)" d="M20.1,-26.1C24.6,-20.2,25.6,-12.5,25.8,-5.5C25.9,1.6,25.1,7.8,22.5,13.6C19.9,19.4,15.4,24.8,10.3,25.5C5.1,26.2,-0.7,22.1,-9.1,20.9C-17.4,19.6,-28.3,21.1,-33.4,17C-38.6,12.9,-38,3.1,-34.2,-3.9C-30.4,-10.9,-23.3,-15.1,-17.1,-20.6C-10.8,-26.2,-5.4,-33,1.2,-34.5C7.8,-35.9,15.7,-31.9,20.1,-26.1Z" width="100%" height="100%" transform="translate(50 50)" stroke-width="0" style="transition: all 0.3s ease 0s;" stroke="url(#sw-gradient)"></path>
              </svg>