<!--?xml version="1.0" standalone="no"?-->
              <svg id="sw-js-blob-svg" viewBox="0 0 100 100" xmlns="http://www.w3.org/2000/svg" version="1.1">
                    <defs> 
                        <linearGradient id="sw-gradient" x1="0" x2="1" y1="1" y2="0">
                            <stop id="stop1" stop-color="rgba(248, 117, 55, 1)" offset="0%"></stop>
                            <stop id="stop2" stop-color="rgba(251, 31, 31, 1)" offset="100%"></stop>
                        </linearGradient>
                    </defs>
                <path fill="url(#sw-gradient)" d="M23.2,-23.9C31,-21.1,39,-14.7,41.8,-6.3C44.5,2.1,42.2,12.6,35.4,16.9C28.7,21.2,17.5,19.3,9,20.6C0.6,21.8,-5.2,26.1,-11.6,26.2C-18,26.4,-24.9,22.4,-28,16.4C-31.1,10.5,-30.5,2.6,-29.1,-5.1C-27.6,-12.7,-25.4,-20.2,-20.5,-23.5C-15.5,-26.7,-7.7,-25.7,0,-25.7C7.7,-25.7,15.4,-26.6,23.2,-23.9Z" width="100%" height="100%" transform="translate(50 50)" stroke-width="0" style="transition: all 0.3s ease 0s;" stroke="url(#sw-gradient)"></path>
              </svg>