<!--?xml version="1.0" standalone="no"?-->
              <svg id="sw-js-blob-svg" viewBox="0 0 100 100" xmlns="http://www.w3.org/2000/svg" version="1.1">
                    <defs> 
                        <linearGradient id="sw-gradient" x1="0" x2="1" y1="1" y2="0">
                            <stop id="stop1" stop-color="rgba(248, 117, 55, 1)" offset="0%"></stop>
                            <stop id="stop2" stop-color="rgba(251, 31, 31, 1)" offset="100%"></stop>
                        </linearGradient>
                    </defs>
                <path fill="url(#sw-gradient)" d="M29.1,-30.9C36.8,-28.2,41.5,-18.2,42,-8.4C42.5,1.3,38.8,10.8,33.1,17.7C27.4,24.5,19.7,28.8,12.4,29.7C5,30.5,-2.1,27.8,-9.4,25.3C-16.6,22.9,-24.1,20.6,-30.1,15C-36.2,9.5,-40.7,0.8,-39.5,-7.1C-38.3,-15.1,-31.4,-22.1,-23.9,-24.8C-16.4,-27.4,-8.2,-25.6,1.3,-27.1C10.7,-28.6,21.4,-33.5,29.1,-30.9Z" width="100%" height="100%" transform="translate(50 50)" stroke-width="0" style="transition: all 0.3s ease 0s;" stroke="url(#sw-gradient)"></path>
              </svg>