<!--?xml version="1.0" standalone="no"?-->
              <svg id="sw-js-blob-svg" viewBox="0 0 100 100" xmlns="http://www.w3.org/2000/svg" version="1.1">
                    <defs> 
                        <linearGradient id="sw-gradient" x1="0" x2="1" y1="1" y2="0">
                            <stop id="stop1" stop-color="rgba(248, 117, 55, 1)" offset="0%"></stop>
                            <stop id="stop2" stop-color="rgba(251, 31, 31, 1)" offset="100%"></stop>
                        </linearGradient>
                    </defs>
                <path fill="url(#sw-gradient)" d="M21.3,-23.9C28.6,-19.3,36.1,-13.5,37.9,-6.2C39.8,1.1,36.1,9.9,30.6,16.1C25.2,22.4,18,26.1,10,30.1C2.1,34.1,-6.7,38.4,-13.2,36.1C-19.7,33.8,-23.9,25,-27.4,16.8C-30.9,8.6,-33.8,1.1,-33,-6.2C-32.2,-13.6,-27.7,-20.6,-21.6,-25.4C-15.5,-30.2,-7.8,-32.6,-0.4,-32.2C7,-31.8,14.1,-28.5,21.3,-23.9Z" width="100%" height="100%" transform="translate(50 50)" stroke-width="0" style="transition: all 0.3s ease 0s;" stroke="url(#sw-gradient)"></path>
              </svg>