<!--?xml version="1.0" standalone="no"?-->
              <svg id="sw-js-blob-svg" viewBox="0 0 100 100" xmlns="http://www.w3.org/2000/svg" version="1.1">
                    <defs> 
                        <linearGradient id="sw-gradient" x1="0" x2="1" y1="1" y2="0">
                            <stop id="stop1" stop-color="rgba(248, 117, 55, 1)" offset="0%"></stop>
                            <stop id="stop2" stop-color="rgba(251, 31, 31, 1)" offset="100%"></stop>
                        </linearGradient>
                    </defs>
                <path fill="url(#sw-gradient)" d="M23.1,-29.2C29.4,-22.3,33.5,-14.5,35,-6.2C36.5,2.2,35.4,11,31.9,19.7C28.4,28.4,22.5,37.1,14.2,40.9C5.9,44.8,-4.9,43.8,-14.8,40.4C-24.8,36.9,-34,30.9,-39.3,22.4C-44.7,13.8,-46.2,2.7,-43.7,-7C-41.1,-16.7,-34.6,-25.1,-26.6,-31.7C-18.7,-38.3,-9.3,-43.2,-0.5,-42.7C8.4,-42.1,16.8,-36.1,23.1,-29.2Z" width="100%" height="100%" transform="translate(50 50)" stroke-width="0" style="transition: all 0.3s ease 0s;" stroke="url(#sw-gradient)"></path>
              </svg>